<svg version="1.1" xmlns="http://www.w3.org/2000/svg" viewBox="0 0 929.4451375741992 327.8349562869058" width="929.4451375741992" height="327.8349562869058">
  <!-- svg-source:excalidraw -->
  
  <defs>
    <style class="style-fonts">
      @font-face {
        font-family: "Virgil";
        src: url("https://excalidraw.com/Virgil.woff2");
      }
      @font-face {
        font-family: "Cascadia";
        src: url("https://excalidraw.com/Cascadia.woff2");
      }
      @font-face {
        font-family: "Assistant";
        src: url("https://excalidraw.com/Assistant-Regular.woff2");
      }
    </style>
    
  </defs>
  <g stroke-linecap="round" transform="translate(10 22.62856558099719) rotate(0 51.5687722451531 27.337286418841074)"><path d="M13.67 0 C37.29 0, 60.92 0, 89.47 0 C98.58 0, 103.14 4.56, 103.14 13.67 C103.14 20.43, 103.14 27.18, 103.14 41.01 C103.14 50.12, 98.58 54.67, 89.47 54.67 C68.33 54.67, 47.2 54.67, 13.67 54.67 C4.56 54.67, 0 50.12, 0 41.01 C0 33.12, 0 25.23, 0 13.67 C0 4.56, 4.56 0, 13.67 0" stroke="none" stroke-width="0" fill="#ffec99"></path><path d="M13.67 0 C37.47 0, 61.27 0, 89.47 0 M13.67 0 C34.98 0, 56.3 0, 89.47 0 M89.47 0 C98.58 0, 103.14 4.56, 103.14 13.67 M89.47 0 C98.58 0, 103.14 4.56, 103.14 13.67 M103.14 13.67 C103.14 23.39, 103.14 33.12, 103.14 41.01 M103.14 13.67 C103.14 21.79, 103.14 29.9, 103.14 41.01 M103.14 41.01 C103.14 50.12, 98.58 54.67, 89.47 54.67 M103.14 41.01 C103.14 50.12, 98.58 54.67, 89.47 54.67 M89.47 54.67 C73.74 54.67, 58 54.67, 13.67 54.67 M89.47 54.67 C73.7 54.67, 57.94 54.67, 13.67 54.67 M13.67 54.67 C4.56 54.67, 0 50.12, 0 41.01 M13.67 54.67 C4.56 54.67, 0 50.12, 0 41.01 M0 41.01 C0 30.61, 0 20.21, 0 13.67 M0 41.01 C0 31.69, 0 22.36, 0 13.67 M0 13.67 C0 4.56, 4.56 0, 13.67 0 M0 13.67 C0 4.56, 4.56 0, 13.67 0" stroke="#e03131" stroke-width="1" fill="none"></path></g><g transform="translate(23.048691678746877 39.965851999838264) rotate(0 38.52008056640625 10)"><text x="38.52008056640625" y="0" font-family="Virgil, Segoe UI Emoji" font-size="16px" fill="#e03131" text-anchor="middle" style="white-space: pre;" direction="ltr" dominant-baseline="text-before-edge">Dockerfile</text></g><g stroke-linecap="round" transform="translate(425.69794138685506 24.486196859391384) rotate(0 86.16148903072163 27.337286418841074)"><path d="M13.67 0 C50.2 0, 86.73 0, 158.65 0 C167.77 0, 172.32 4.56, 172.32 13.67 C172.32 19.24, 172.32 24.82, 172.32 41.01 C172.32 50.12, 167.77 54.67, 158.65 54.67 C114.07 54.67, 69.48 54.67, 13.67 54.67 C4.56 54.67, 0 50.12, 0 41.01 C0 35.49, 0 29.97, 0 13.67 C0 4.56, 4.56 0, 13.67 0" stroke="none" stroke-width="0" fill="#ffec99"></path><path d="M13.67 0 C68.57 0, 123.47 0, 158.65 0 M13.67 0 C60.2 0, 106.73 0, 158.65 0 M158.65 0 C167.77 0, 172.32 4.56, 172.32 13.67 M158.65 0 C167.77 0, 172.32 4.56, 172.32 13.67 M172.32 13.67 C172.32 20.23, 172.32 26.78, 172.32 41.01 M172.32 13.67 C172.32 24.28, 172.32 34.88, 172.32 41.01 M172.32 41.01 C172.32 50.12, 167.77 54.67, 158.65 54.67 M172.32 41.01 C172.32 50.12, 167.77 54.67, 158.65 54.67 M158.65 54.67 C108 54.67, 57.35 54.67, 13.67 54.67 M158.65 54.67 C107.07 54.67, 55.49 54.67, 13.67 54.67 M13.67 54.67 C4.56 54.67, 0 50.12, 0 41.01 M13.67 54.67 C4.56 54.67, 0 50.12, 0 41.01 M0 41.01 C0 32.73, 0 24.45, 0 13.67 M0 41.01 C0 34.02, 0 27.04, 0 13.67 M0 13.67 C0 4.56, 4.56 0, 13.67 0 M0 13.67 C0 4.56, 4.56 0, 13.67 0" stroke="#e03131" stroke-width="1" fill="none"></path></g><g transform="translate(440.13929186777204 41.82348327823246) rotate(0 71.72013854980469 10)"><text x="71.72013854980469" y="0" font-family="Virgil, Segoe UI Emoji" font-size="16px" fill="#e03131" text-anchor="middle" style="white-space: pre;" direction="ltr" dominant-baseline="text-before-edge">docker-compose.yml</text></g><g stroke-linecap="round" transform="translate(742.7960479746205 11.830861098103924) rotate(0 86.16148903072164 27.337286418841074)"><path d="M13.67 0 C47.18 0, 80.69 0, 158.65 0 C167.77 0, 172.32 4.56, 172.32 13.67 C172.32 22.07, 172.32 30.47, 172.32 41.01 C172.32 50.12, 167.77 54.67, 158.65 54.67 C107.29 54.67, 55.92 54.67, 13.67 54.67 C4.56 54.67, 0 50.12, 0 41.01 C0 30.48, 0 19.95, 0 13.67 C0 4.56, 4.56 0, 13.67 0" stroke="none" stroke-width="0" fill="#a5d8ff"></path><path d="M13.67 0 C68.62 0, 123.57 0, 158.65 0 M13.67 0 C65.26 0, 116.85 0, 158.65 0 M158.65 0 C167.77 0, 172.32 4.56, 172.32 13.67 M158.65 0 C167.77 0, 172.32 4.56, 172.32 13.67 M172.32 13.67 C172.32 23.58, 172.32 33.5, 172.32 41.01 M172.32 13.67 C172.32 19.2, 172.32 24.74, 172.32 41.01 M172.32 41.01 C172.32 50.12, 167.77 54.67, 158.65 54.67 M172.32 41.01 C172.32 50.12, 167.77 54.67, 158.65 54.67 M158.65 54.67 C125.09 54.67, 91.53 54.67, 13.67 54.67 M158.65 54.67 C112.12 54.67, 65.59 54.67, 13.67 54.67 M13.67 54.67 C4.56 54.67, 0 50.12, 0 41.01 M13.67 54.67 C4.56 54.67, 0 50.12, 0 41.01 M0 41.01 C0 30.27, 0 19.53, 0 13.67 M0 41.01 C0 33.8, 0 26.59, 0 13.67 M0 13.67 C0 4.56, 4.56 0, 13.67 0 M0 13.67 C0 4.56, 4.56 0, 13.67 0" stroke="#1e1e1e" stroke-width="1" fill="none"></path></g><g transform="translate(796.3974631528031 29.168147516944998) rotate(0 32.56007385253909 10)"><text x="32.56007385253906" y="0" font-family="Virgil, Segoe UI Emoji" font-size="16px" fill="#1e1e1e" text-anchor="middle" style="white-space: pre;" direction="ltr" dominant-baseline="text-before-edge">MakeFile</text></g><g stroke-linecap="round"><g transform="translate(739.2727157094234 48.91401271624716) rotate(0 -68.8642319979642 0.6485333198073988)"><path d="M0 0 C-22.95 0.22, -114.77 1.08, -137.73 1.3 M0 0 C-22.95 0.22, -114.77 1.08, -137.73 1.3" stroke="#2f9e44" stroke-width="1" fill="none"></path></g><g transform="translate(739.2727157094234 48.91401271624716) rotate(0 -68.8642319979642 0.6485333198073988)"><path d="M-114.32 -7.47 C-123.26 -4.12, -132.21 -0.77, -137.73 1.3 M-114.32 -7.47 C-120.85 -5.03, -127.38 -2.58, -137.73 1.3" stroke="#2f9e44" stroke-width="1" fill="none"></path></g><g transform="translate(739.2727157094234 48.91401271624716) rotate(0 -68.8642319979642 0.6485333198073988)"><path d="M-114.16 9.63 C-123.16 6.44, -132.17 3.26, -137.73 1.3 M-114.16 9.63 C-120.73 7.3, -127.31 4.98, -137.73 1.3" stroke="#2f9e44" stroke-width="1" fill="none"></path></g></g><mask></mask><g stroke-linecap="round" transform="translate(764.4185179055402 190.83495628690582) rotate(0 77.51330983432948 63.5)"><path d="M155.03 63.5 C155.03 65.87, 154.86 68.25, 154.54 70.61 C154.22 72.96, 153.73 75.32, 153.08 77.63 C152.44 79.94, 151.63 82.24, 150.68 84.47 C149.72 86.71, 148.61 88.92, 147.35 91.05 C146.1 93.19, 144.68 95.28, 143.15 97.28 C141.61 99.29, 139.92 101.24, 138.12 103.09 C136.31 104.94, 134.37 106.73, 132.32 108.4 C130.28 110.08, 128.1 111.67, 125.84 113.15 C123.58 114.62, 121.2 116.01, 118.75 117.27 C116.3 118.53, 113.75 119.68, 111.15 120.71 C108.54 121.74, 105.84 122.65, 103.11 123.44 C100.38 124.22, 97.58 124.88, 94.76 125.41 C91.94 125.94, 89.07 126.34, 86.19 126.6 C83.32 126.87, 80.41 127, 77.51 127 C74.62 127, 71.71 126.87, 68.83 126.6 C65.96 126.34, 63.09 125.94, 60.26 125.41 C57.44 124.88, 54.64 124.22, 51.91 123.44 C49.18 122.65, 46.49 121.74, 43.88 120.71 C41.28 119.68, 38.72 118.53, 36.27 117.27 C33.82 116.01, 31.45 114.62, 29.18 113.15 C26.92 111.67, 24.75 110.08, 22.7 108.4 C20.66 106.73, 18.71 104.94, 16.91 103.09 C15.11 101.24, 13.42 99.29, 11.88 97.28 C10.34 95.28, 8.93 93.19, 7.68 91.05 C6.42 88.92, 5.31 86.71, 4.35 84.47 C3.39 82.24, 2.59 79.94, 1.94 77.63 C1.3 75.32, 0.81 72.96, 0.49 70.61 C0.16 68.25, 0 65.87, 0 63.5 C0 61.13, 0.16 58.75, 0.49 56.39 C0.81 54.04, 1.3 51.68, 1.94 49.37 C2.59 47.06, 3.39 44.76, 4.35 42.53 C5.31 40.29, 6.42 38.08, 7.68 35.95 C8.93 33.81, 10.34 31.72, 11.88 29.72 C13.42 27.71, 15.11 25.76, 16.91 23.91 C18.71 22.06, 20.66 20.27, 22.7 18.6 C24.75 16.92, 26.92 15.33, 29.18 13.85 C31.45 12.38, 33.82 10.99, 36.27 9.73 C38.72 8.47, 41.28 7.32, 43.88 6.29 C46.49 5.26, 49.18 4.35, 51.91 3.56 C54.64 2.78, 57.44 2.12, 60.26 1.59 C63.09 1.06, 65.96 0.66, 68.83 0.4 C71.71 0.13, 74.62 0, 77.51 0 C80.41 0, 83.32 0.13, 86.19 0.4 C89.07 0.66, 91.94 1.06, 94.76 1.59 C97.58 2.12, 100.38 2.78, 103.11 3.56 C105.84 4.35, 108.54 5.26, 111.15 6.29 C113.75 7.32, 116.3 8.47, 118.75 9.73 C121.2 10.99, 123.58 12.38, 125.84 13.85 C128.1 15.33, 130.28 16.92, 132.32 18.6 C134.37 20.27, 136.31 22.06, 138.12 23.91 C139.92 25.76, 141.61 27.71, 143.15 29.72 C144.68 31.72, 146.1 33.81, 147.35 35.95 C148.61 38.08, 149.72 40.29, 150.68 42.53 C151.63 44.76, 152.44 47.06, 153.08 49.37 C153.73 51.68, 154.22 54.04, 154.54 56.39 C154.86 58.75, 154.95 62.32, 155.03 63.5 C155.11 64.68, 155.11 62.32, 155.03 63.5" stroke="none" stroke-width="0" fill="#ffec99"></path><path d="M155.03 63.5 C155.03 65.87, 154.86 68.25, 154.54 70.61 C154.22 72.96, 153.73 75.32, 153.08 77.63 C152.44 79.94, 151.63 82.24, 150.68 84.47 C149.72 86.71, 148.61 88.92, 147.35 91.05 C146.1 93.19, 144.68 95.28, 143.15 97.28 C141.61 99.29, 139.92 101.24, 138.12 103.09 C136.31 104.94, 134.37 106.73, 132.32 108.4 C130.28 110.08, 128.1 111.67, 125.84 113.15 C123.58 114.62, 121.2 116.01, 118.75 117.27 C116.3 118.53, 113.75 119.68, 111.15 120.71 C108.54 121.74, 105.84 122.65, 103.11 123.44 C100.38 124.22, 97.58 124.88, 94.76 125.41 C91.94 125.94, 89.07 126.34, 86.19 126.6 C83.32 126.87, 80.41 127, 77.51 127 C74.62 127, 71.71 126.87, 68.83 126.6 C65.96 126.34, 63.09 125.94, 60.26 125.41 C57.44 124.88, 54.64 124.22, 51.91 123.44 C49.18 122.65, 46.49 121.74, 43.88 120.71 C41.28 119.68, 38.72 118.53, 36.27 117.27 C33.82 116.01, 31.45 114.62, 29.18 113.15 C26.92 111.67, 24.75 110.08, 22.7 108.4 C20.66 106.73, 18.71 104.94, 16.91 103.09 C15.11 101.24, 13.42 99.29, 11.88 97.28 C10.34 95.28, 8.93 93.19, 7.68 91.05 C6.42 88.92, 5.31 86.71, 4.35 84.47 C3.39 82.24, 2.59 79.94, 1.94 77.63 C1.3 75.32, 0.81 72.96, 0.49 70.61 C0.16 68.25, 0 65.87, 0 63.5 C0 61.13, 0.16 58.75, 0.49 56.39 C0.81 54.04, 1.3 51.68, 1.94 49.37 C2.59 47.06, 3.39 44.76, 4.35 42.53 C5.31 40.29, 6.42 38.08, 7.68 35.95 C8.93 33.81, 10.34 31.72, 11.88 29.72 C13.42 27.71, 15.11 25.76, 16.91 23.91 C18.71 22.06, 20.66 20.27, 22.7 18.6 C24.75 16.92, 26.92 15.33, 29.18 13.85 C31.45 12.38, 33.82 10.99, 36.27 9.73 C38.72 8.47, 41.28 7.32, 43.88 6.29 C46.49 5.26, 49.18 4.35, 51.91 3.56 C54.64 2.78, 57.44 2.12, 60.26 1.59 C63.09 1.06, 65.96 0.66, 68.83 0.4 C71.71 0.13, 74.62 0, 77.51 0 C80.41 0, 83.32 0.13, 86.19 0.4 C89.07 0.66, 91.94 1.06, 94.76 1.59 C97.58 2.12, 100.38 2.78, 103.11 3.56 C105.84 4.35, 108.54 5.26, 111.15 6.29 C113.75 7.32, 116.3 8.47, 118.75 9.73 C121.2 10.99, 123.58 12.38, 125.84 13.85 C128.1 15.33, 130.28 16.92, 132.32 18.6 C134.37 20.27, 136.31 22.06, 138.12 23.91 C139.92 25.76, 141.61 27.71, 143.15 29.72 C144.68 31.72, 146.1 33.81, 147.35 35.95 C148.61 38.08, 149.72 40.29, 150.68 42.53 C151.63 44.76, 152.44 47.06, 153.08 49.37 C153.73 51.68, 154.22 54.04, 154.54 56.39 C154.86 58.75, 154.95 62.32, 155.03 63.5 C155.11 64.68, 155.11 62.32, 155.03 63.5" stroke="#e03131" stroke-width="1" fill="none"></path></g><g transform="translate(819.4975943981178 224.4336756815601) rotate(0 22.624046325683594 30)"><text x="22.624046325683594" y="0" font-family="Virgil, Segoe UI Emoji" font-size="16px" fill="#e03131" text-anchor="middle" style="white-space: pre;" direction="ltr" dominant-baseline="text-before-edge">GUID</text><text x="22.624046325683594" y="20" font-family="Virgil, Segoe UI Emoji" font-size="16px" fill="#e03131" text-anchor="middle" style="white-space: pre;" direction="ltr" dominant-baseline="text-before-edge">UID</text><text x="22.624046325683594" y="40" font-family="Virgil, Segoe UI Emoji" font-size="16px" fill="#e03131" text-anchor="middle" style="white-space: pre;" direction="ltr" dominant-baseline="text-before-edge">USER</text></g><g mask="url(#mask-h2AcmCOeIDIgVgigdMYhZ)" stroke-linecap="round"><g transform="translate(764.0575986901085 227.69896907063372) rotate(0 -135.35169310120602 -70.32108157021665)"><path d="M0 0 C-45.12 -23.44, -225.59 -117.2, -270.7 -140.64 M0 0 C-45.12 -23.44, -225.59 -117.2, -270.7 -140.64" stroke="#1e1e1e" stroke-width="1" fill="none"></path></g><g transform="translate(764.0575986901085 227.69896907063372) rotate(0 -135.35169310120602 -70.32108157021665)"><path d="M-245.91 -137.4 C-251.41 -138.12, -256.91 -138.84, -270.7 -140.64 M-245.91 -137.4 C-251.38 -138.11, -256.84 -138.83, -270.7 -140.64" stroke="#1e1e1e" stroke-width="1" fill="none"></path></g><g transform="translate(764.0575986901085 227.69896907063372) rotate(0 -135.35169310120602 -70.32108157021665)"><path d="M-253.8 -122.22 C-257.55 -126.31, -261.3 -130.4, -270.7 -140.64 M-253.8 -122.22 C-257.53 -126.28, -261.25 -130.34, -270.7 -140.64" stroke="#1e1e1e" stroke-width="1" fill="none"></path></g></g><mask id="mask-h2AcmCOeIDIgVgigdMYhZ"><rect x="0" y="0" fill="#fff" width="1134.7609848925206" height="468.341132211067"></rect><rect x="553.265742930211" y="107.37788750041699" fill="#000" width="150.8803253173828" height="100" opacity="1"></rect></mask><g transform="translate(553.2657429302111 107.37788750041705) rotate(0 75.4401626586914 50.00000000000003)"><text x="75.4401626586914" y="0" font-family="Virgil, Segoe UI Emoji" font-size="16px" fill="#1e1e1e" text-anchor="middle" style="white-space: pre;" direction="ltr" dominant-baseline="text-before-edge">When the MakeFile </text><text x="75.4401626586914" y="20" font-family="Virgil, Segoe UI Emoji" font-size="16px" fill="#1e1e1e" text-anchor="middle" style="white-space: pre;" direction="ltr" dominant-baseline="text-before-edge">calls: </text><text x="75.4401626586914" y="40" font-family="Virgil, Segoe UI Emoji" font-size="16px" fill="#1e1e1e" text-anchor="middle" style="white-space: pre;" direction="ltr" dominant-baseline="text-before-edge">docker-compose.yml</text><text x="75.4401626586914" y="60" font-family="Virgil, Segoe UI Emoji" font-size="16px" fill="#1e1e1e" text-anchor="middle" style="white-space: pre;" direction="ltr" dominant-baseline="text-before-edge">it also sends env </text><text x="75.4401626586914" y="80" font-family="Virgil, Segoe UI Emoji" font-size="16px" fill="#1e1e1e" text-anchor="middle" style="white-space: pre;" direction="ltr" dominant-baseline="text-before-edge">variables</text></g><g stroke-linecap="round"><g transform="translate(834.7247870828828 78.08832380060858) rotate(0 1.601514665998593 56.69361917634848)"><path d="M0 0 C0.53 18.9, 2.67 94.49, 3.2 113.39 M0 0 C0.53 18.9, 2.67 94.49, 3.2 113.39" stroke="#1e1e1e" stroke-width="1" fill="none"></path></g></g><mask></mask><g mask="url(#mask-2AbbbEOw6HJPebTVAnbkD)" stroke-linecap="round"><g transform="translate(418.33097392326164 49.838599094260076) rotate(0 -150.35459418407976 0.1614009057399528)"><path d="M0 0 C-50.12 0.05, -250.59 0.27, -300.71 0.32 M0 0 C-50.12 0.05, -250.59 0.27, -300.71 0.32" stroke="#1e1e1e" stroke-width="1" fill="none"></path></g><g transform="translate(418.33097392326164 49.838599094260076) rotate(0 -150.35459418407976 0.1614009057399528)"><path d="M-277.23 -8.25 C-284.81 -5.48, -292.39 -2.72, -300.71 0.32 M-277.23 -8.25 C-283.56 -5.94, -289.9 -3.62, -300.71 0.32" stroke="#1e1e1e" stroke-width="1" fill="none"></path></g><g transform="translate(418.33097392326164 49.838599094260076) rotate(0 -150.35459418407976 0.1614009057399528)"><path d="M-277.21 8.85 C-284.79 6.1, -292.38 3.34, -300.71 0.32 M-277.21 8.85 C-283.55 6.55, -289.89 4.25, -300.71 0.32" stroke="#1e1e1e" stroke-width="1" fill="none"></path></g></g><mask id="mask-2AbbbEOw6HJPebTVAnbkD"><rect x="0" y="0" fill="#fff" width="819.0401622914212" height="150.16140090573998"></rect><rect x="183.46421085490454" y="10" fill="#000" width="169.0243377685547" height="80" opacity="1"></rect></mask><g transform="translate(183.46421085490454 10) rotate(0 84.51216888427734 40.00000000000003)"><text x="84.51216888427734" y="0" font-family="Virgil, Segoe UI Emoji" font-size="16px" fill="#1e1e1e" text-anchor="middle" style="white-space: pre;" direction="ltr" dominant-baseline="text-before-edge">docker-compose calls </text><text x="84.51216888427734" y="20" font-family="Virgil, Segoe UI Emoji" font-size="16px" fill="#1e1e1e" text-anchor="middle" style="white-space: pre;" direction="ltr" dominant-baseline="text-before-edge">Dockerfiles, sending </text><text x="84.51216888427734" y="40" font-family="Virgil, Segoe UI Emoji" font-size="16px" fill="#1e1e1e" text-anchor="middle" style="white-space: pre;" direction="ltr" dominant-baseline="text-before-edge">variables that were </text><text x="84.51216888427734" y="60" font-family="Virgil, Segoe UI Emoji" font-size="16px" fill="#1e1e1e" text-anchor="middle" style="white-space: pre;" direction="ltr" dominant-baseline="text-before-edge">defined in MakeFile.</text></g></svg>